<svg xmlns="http://www.w3.org/2000/svg" style="display: none;"><symbol id="cough" viewBox="0 0 512 512"><title>cough</title><path d="m242.04 371.744a288.5 288.5 0 0 1 21.95-30.691v-26.807c-24.331 5.78-27.491 7.624-35.22 7.624a38.675 38.675 0 0 1 -36.792-27.4 8 8 0 0 1 4.086-9.457l17.936-8.962c-2.738-6.589-5.368-10.906-22.941-8.373a8 8 0 0 1 -8.8-5.619l-5.059-16.842c-21.369-14.061-26-13.793-27.085-19.792-1.113-6.145 2.851-6.62 25.872-37.6v-59.825h216c-1.575 213.535 3.724 210.637-4.114 214.993-2.988 1.66-73.922 40.66-139.015 41a8 8 0 0 1 -6.818-12.249z" fill="#ffdfc5"/><path d="m264.018 315.261v25.793a288.341 288.341 0 0 0 -21.95 30.69 8 8 0 0 0 6.821 12.246c65.093-.337 136.027-39.337 139.015-41a8 8 0 0 0 4.114-6.99v-171.448a232.539 232.539 0 0 1 -128 150.709z" fill="#ffd5c7"/><path d="m447.829 512h-247.641c-2.433-57.059 21.754-108.113 41.884-140.254 21.946 4.254 136.546-19.746 150.946-40.546 39 44.8 55.889 103.736 55 152.043z" fill="#96e0d7"/><path d="m419.713 369.857a208.125 208.125 0 0 1 -218.829 115.855 193.324 193.324 0 0 0 -.7 26.288h247.645l.189-28.757c.651-35.343-8.229-76.365-28.305-113.386z" fill="#97d0dd"/><path d="m384.016 302.568a8.01 8.01 0 0 1 -2.811-.511c-69.187-25.988-69.187-95.856-69.187-137.6 0-2.862-.632-6.844-3.647-9.561-2.653-2.392-6.747-3.435-11.525-2.938a7.889 7.889 0 0 1 -.828.043h-74.636c-23.512-.395-42.728-8.562-57.115-24.276-32.107-35.07-28.211-95.185-28.029-97.725a8.079 8.079 0 0 1 6.5-7.428 7.844 7.844 0 0 1 8.612 4.377c.551.969 6.522 10.71 23.636 10.71 18.884 0 46.481-8.113 75.7-16.7 32.182-9.459 65.458-19.246 94.45-20.759 33.014-1.72 55.524 8.314 66.993 29.849 17.971 2.4 32.712 14.327 41.857 34.031 11.9 25.648 13.307 61.677 3.95 101.451-10.5 44.648-33.886 90.976-67.624 133.975a8 8 0 0 1 -6.296 3.062z" fill="#68676b"/><path d="m453.986 64.079c-5.612-12.09-13.338-21.236-22.617-27.066a220.041 220.041 0 0 1 -116.543 177.52c5.363 34.505 20.968 70.466 66.379 87.524a8 8 0 0 0 9.107-2.552c33.738-43 57.121-89.327 67.624-133.975 9.357-39.774 7.953-75.803-3.95-101.451z" fill="#58575b"/><path d="m328.018 238.567h-32v-64h16.744c6.783-34.749 55.256-30.962 55.256 16 0 27.003-13.601 48-40 48z" fill="#ffdfc5"/><circle cx="332.018" cy="52" fill="#8a8a8c" r="28"/><circle cx="380.018" cy="84" fill="#8a8a8c" r="12"/><path d="m400.018 512h-112v-71.15c0-30.731 24.4-56.375 55.132-56.843a56.061 56.061 0 0 1 56.868 55.993z" fill="#afefde"/><path d="m352.012 155.515c0 .162.006.323.006.485a92 92 0 0 1 -51.389 82.567h27.389c26.4 0 40-21 40-48 0-17.814-6.977-29.41-16.006-35.052z" fill="#ffd5c7"/><circle cx="336.018" cy="432" fill="#d5f7ed" r="16"/><circle cx="360.018" cy="456" fill="#d5f7ed" r="8"/><g fill="#f27c6d"><path d="m151.988 272h-15.988a8 8 0 0 1 0-16h15.988a8 8 0 0 1 0 16z"/><path d="m183.988 344a8 8 0 0 1 -8-8v-16a8 8 0 0 1 16 0v16a8 8 0 0 1 -8 8z"/><path d="m143.988 320a8 8 0 0 1 -5.657-13.657l16-16a8 8 0 0 1 11.315 11.314l-16 16a7.978 7.978 0 0 1 -5.658 2.343z"/></g><path d="m72 456.911v55.089h76.193c-1.12-13.721-2.462-31.229-3.99-53.667 29.657-41.62 22.85-82.609 23.8-90.333a24 24 0 0 0 -48 0v18.053a5.947 5.947 0 0 1 -11.589 1.881l-12.088-36.254 9.613-38.456c6.74-26.948-28.242-41.865-33.429-28.033-24.749 67.323-25.278 64.392-24.305 68.609z" fill="#ffdfc5"/><path d="m168 368c0-.179-.01-.355-.014-.533a177.614 177.614 0 0 1 -95.986 91.706v52.827h76.193c-1.12-13.721-2.462-31.229-3.99-53.667 29.657-41.62 22.85-82.609 23.797-90.333z" fill="#ffd5c7"/></symbol><symbol id="microphone" viewBox="0 0 511.9 511.9"><title>microphone</title><path d="m441.663 292.665c-23.438-23.438-61.553-23.408-84.873 0l-171.687 171.702c-23.379 23.379-61.494 23.438-84.873 0-23.379-23.394-23.379-61.45 0-84.829l7.734-7.72c5.75-5.75 5.782-14.96.245-20.841-.104-.112-.135-.26-.245-.37-5.859-5.889-15.352-5.859-21.211-.029l-7.734 7.734c-13.173 13.178-21.389 29.464-24.666 46.522-5.446 28.352 2.77 58.839 24.666 80.744 35.099 35.099 92.201 35.094 127.295 0l171.688-171.702c11.396-11.338 31.113-11.294 42.451-.015 11.66 11.704 11.66 30.762 0 42.451l-74.268 74.238c-5.859 5.859-5.859 15.352 0 21.211s15.352 5.859 21.211 0l74.268-74.253c23.349-23.378 23.349-61.45-.001-84.843z" fill="#405480"/><path d="m428.48 30.707c-40.957-40.972-107.549-40.913-148.506 0-40.928 40.942-40.928 107.534 0 148.477.005.005.011.007.016.013 40.95 40.933 107.571 40.904 148.489-.013 40.929-40.943 40.929-107.535.001-148.477z" fill="#405480"/><path d="m428.48 179.183c40.928-40.942 40.928-107.534 0-148.477l-148.49 148.49c40.95 40.933 107.571 40.904 148.49-.013z" fill="#2d3559"/><path d="m289.418 169.768-52.98-52.987-171.716 214.139c-4.775 5.977-4.307 14.575 1.113 19.98l21.233 21.218 21.218 21.204c5.33 5.356 13.956 5.92 19.98 1.113l214.109-171.702z" fill="#ff698e"/><path d="m128.267 394.435 214.109-171.702-52.958-52.965-202.35 202.35 21.218 21.204c5.331 5.356 13.957 5.92 19.981 1.113z" fill="#d9215e"/><path d="m258.768 200.418c-.002-.002-.004-.007-.005-.009-5.859-5.859-15.352-5.859-21.211 0l-21.211 21.211c-5.859 5.859-5.859 15.352 0 21.211.002.002.007.004.009.005 5.861 5.854 15.344 5.852 21.202-.005l21.211-21.211c5.858-5.858 5.859-15.341.005-21.202z" fill="#405480"/><path d="m237.552 242.831 21.211-21.211c5.858-5.858 5.859-15.341.005-21.202l-42.418 42.418c5.861 5.854 15.344 5.852 21.202-.005z" fill="#2d3559"/><path d="m449.691 179.198-84.851-84.851-84.866-84.866c-5.859-5.859-15.352-5.859-21.211 0s-5.859 15.352 0 21.211l84.866 84.866 84.851 84.851c5.859 5.859 15.352 5.859 21.211 0s5.859-15.352 0-21.211z" fill="#e1e6f0"/><path d="m449.691 200.409c5.859-5.859 5.859-15.352 0-21.211l-84.851-84.851-21.211 21.211 84.851 84.851c5.859 5.859 15.351 5.859 21.211 0z" fill="#b6c1d3"/><path d="m364.818 221.62-63.622-63.629-63.644-63.651c-5.859-5.859-15.352-5.859-21.211 0s-5.859 15.352 0 21.211l63.644 63.651 63.622 63.629c5.859 5.859 15.352 5.859 21.211 0s5.859-15.352 0-21.211z" fill="#e1e6f0"/><path d="m364.818 242.831c5.859-5.859 5.859-15.352 0-21.211l-63.622-63.629-21.211 21.211 63.622 63.629c5.859 5.859 15.351 5.859 21.211 0z" fill="#b6c1d3"/></symbol><symbol id="breath" viewBox="0 0 512 512"><title>breath</title><path d="m440 346.69v149.31h-368v-149.31a64 64 0 0 1 49.34-62.3l74.32-17.49a16 16 0 0 0 12.34-15.57v-19.33h-24a16 16 0 0 1 -16-16v-48h-24s24.5-66.81 25.45-72a88.06 88.06 0 0 1 96.65-71.44c40.12 4.47 72.74 37.02 77.31 77.12a87.527 87.527 0 0 1 -17.63 63.82c-13.5 17.5-21.78 38.44-21.78 60.54v25.29a16 16 0 0 0 12.34 15.57l17.14 4.03 57.18 13.46a64 64 0 0 1 49.34 62.3z" fill="#348fd9"/><path d="m440 346.69v149.31h-368v-41.34c85.95-33.73 185.47-91.71 261.48-183.73l57.18 13.46a64 64 0 0 1 49.34 62.3z" fill="#3086cd"/><path d="m168.88 488h-48.88v-79.953a64 64 0 0 1 15.835-42.147l33.588-38.386a22.012 22.012 0 0 1 16.565-7.514 22.012 22.012 0 0 1 22.012 22.011v106.869a39.12 39.12 0 0 1 -39.12 39.12z" fill="#f35244"/><path d="m343.12 488h48.88v-79.953a64 64 0 0 0 -15.835-42.147l-33.588-38.386a22.012 22.012 0 0 0 -16.565-7.514 22.012 22.012 0 0 0 -22.012 22.011v106.869a39.12 39.12 0 0 0 39.12 39.12z" fill="#f35244"/><path d="m168 168v32h64a8 8 0 0 1 8 8v136l-32 24v40l48-32 48 32v-40l-32-24v-176a32 32 0 0 0 -32-32h-84.373c-5.977 16.586-11.627 32-11.627 32z" fill="#48add9"/><path d="m16 288a8 8 0 0 0 13.656 5.656l24-24-11.312-11.312-7.11 7.109a80.139 80.139 0 0 1 76.766-57.453h8v-16h-8a96.1 96.1 0 0 0 -96 96z" fill="#4db7e5"/><path d="m125.656 162.344-24-24-11.312 11.312 9.406 9.406a80.127 80.127 0 0 1 -67.75-79.062h-16a96.1 96.1 0 0 0 96 96h8a8 8 0 0 0 5.656-13.656z" fill="#4db7e5"/><g fill="#c9392d"><path d="m163.578 368.844-7.156 14.312 20.277 10.139-10.952 6.705h-21.747v16h13.392l-13.087 45.805 15.39 4.39 5.153-18.035 13.496 13.496 11.312-11.312-19.781-19.782 4.961-17.367 33.164-20.305v-18.759l-15.216 9.316z"/><path d="m337.172 413.219 4.954 17.343-19.782 19.782 11.312 11.312 13.497-13.496 5.152 18.035 15.39-4.39-13.087-45.805h13.392v-16h-21.759l-11.008-6.671 20.345-10.173-7.156-14.312-29.364 14.682-15.058-9.127v18.716z"/></g></symbol><symbol id="x-ray" viewBox="0 0 512 512"><title>x-ray</title><path d="m498.874 234.667-1.979-1h-49.895v-44.155c0-.112-.006-.223-.019-.333h39.632l1.429-1c-32.818-96.641-124.308-166.179-232.042-166.179s-199.224 69.538-232.042 166.178l1.344 1h39.717c-.013.111-.019.222-.019.334v44.155h-49.491l-2.383 1c-1.395 10.581-2.126 21.371-2.126 32.333 0 72.235 31.268 137.162 81 182.003v-246.003c0-2.206 1.794-4 4-4h320c2.206 0 4 1.794 4 4v246.003c49.732-44.841 81-109.768 81-182.003 0-10.962-.731-21.752-2.126-32.333z" fill="#22b27f"/><g fill="#ffbd86"><path d="m446 189.512v45.155h52.874c-2.115-16.036-5.771-31.586-10.832-46.489h-42.562c.32.355.52.82.52 1.334z"/><path d="m66 189.512c0-.514.2-.979.52-1.333h-42.562c-5.061 14.903-8.718 30.452-10.832 46.489h52.874z"/></g><g fill="#f6a96c"><path d="m65 189.511c0-.481.124-.93.326-1.333h-41.368c-5.061 14.903-8.718 30.452-10.832 46.489h21.755c1.464-6.836 3.206-13.568 5.225-20.18 1.278-4.186 5.175-7.024 9.552-7.024h15.342z"/><path d="m447 189.511v17.951h46.691c-1.63-6.534-3.505-12.97-5.65-19.284h-41.367c.202.404.326.852.326 1.333z"/></g><path d="m134.135 479.574c35.894 20.622 77.499 32.426 121.865 32.426s85.971-11.804 121.865-32.426z" fill="#0172fb"/><g><path d="m444 186.511h-376c-1.657 0-3 1.343-3 3v54.489c0 1.657 1.343 3 3 3h24v-44c0-2.206 1.794-4 4-4h320c2.206 0 4 1.794 4 4v44h24c1.657 0 3-1.343 3-3v-54.489c0-1.656-1.343-3-3-3z" fill="#fff"/><g><path d="m187.645 87.943h9.355v-6.282c0-4.844 3.941-8.785 8.785-8.785h31.122c16.545 0 31.457-9.188 38.917-23.978 1.509-2.992 4.516-4.85 7.846-4.85h6.784c13.535 0 24.546 11.012 24.546 24.546v19.349h9.355c3.171 0 6.157.791 8.788 2.17v-36.98c0-29.344-23.789-53.133-53.134-53.133h-48.018c-29.345 0-53.134 23.789-53.134 53.134v36.98c2.631-1.38 5.617-2.171 8.788-2.171z" fill="#883f2e"/><path d="m187.645 87.943h9.355v-6.282c0-4.844 3.941-8.785 8.785-8.785h14.93v-19.742c0-29.345 23.789-53.134 53.134-53.134h-41.857c-29.345 0-53.134 23.789-53.134 53.134v36.98c2.63-1.38 5.616-2.171 8.787-2.171z" fill="#6d3326"/><g><path d="m197 137.891v-50.947h-9.355c-11.046 0-20 8.954-20 20v12.056c0 11.046 8.954 20 20 20h9.383c-.01-.37-.028-.737-.028-1.109z" fill="#f6a96c"/><path d="m324.355 86.944h-9.355v50.947c0 .372-.018.74-.028 1.109h9.383c11.046 0 20-8.954 20-20v-12.056c0-11.046-8.954-20-20-20z" fill="#ffbd86"/></g><path d="m279.932 199c.013-.318.024-.636.024-.957v-19.093c-2.129.338-4.31.518-6.533.518h-34.847c-2.223 0-4.404-.18-6.533-.518v19.094c0 .321.012.639.024.957h47.865z" fill="#ffbd86"/><path d="m256.032 199c-.013-.318-.032-.635-.032-.957v-18.576h-17.423c-2.223 0-4.404-.18-6.533-.518v19.094c0 .321.012.639.024.957z" fill="#f6a96c"/><g><path d="m290.454 43.048h-6.784c-3.701 0-7.072 2.096-8.739 5.4-7.009 13.895-21.399 23.428-38.024 23.428h-31.122c-5.404 0-9.785 4.381-9.785 9.785v56.229c0 23.515 19.062 42.577 42.577 42.577h34.846c23.515 0 42.577-19.062 42.577-42.577v-69.296c0-14.108-11.437-25.546-25.546-25.546z" fill="#fed2a4"/></g><g><path d="m226 137.891v-56.23c0-5.404 4.381-9.785 9.785-9.785h-30c-5.404 0-9.785 4.381-9.785 9.785v56.229c0 23.515 19.062 42.577 42.577 42.577h30c-23.515.001-42.577-19.062-42.577-42.576z" fill="#ffbd86"/></g></g><g><g><g><path d="m226.179 108.313c-4.142 0-7.5-3.358-7.5-7.5v-9.301c0-4.142 3.358-7.5 7.5-7.5s7.5 3.358 7.5 7.5v9.301c0 4.142-3.358 7.5-7.5 7.5z" fill="#d88a55"/></g><g><path d="m285 108.313c-4.142 0-7.5-3.358-7.5-7.5v-9.301c0-4.142 3.358-7.5 7.5-7.5s7.5 3.358 7.5 7.5v9.301c0 4.142-3.358 7.5-7.5 7.5z" fill="#d88a55"/></g></g><g><path d="m257.578 161.334c-9.138 0-17.733-3.562-24.202-10.031-2.929-2.929-2.929-7.678 0-10.606 2.929-2.929 7.678-2.929 10.606 0 7.497 7.497 19.694 7.496 27.19 0 2.929-2.929 7.678-2.929 10.606 0 2.929 2.929 2.929 7.678 0 10.606-6.468 6.469-15.063 10.031-24.2 10.031z" fill="#d88a55"/></g><g><path d="m262 129.5h-6c-5.79 0-10.5-4.71-10.5-10.5v-14c0-4.142 3.358-7.5 7.5-7.5s7.5 3.358 7.5 7.5v9.5h1.5c4.142 0 7.5 3.358 7.5 7.5s-3.358 7.5-7.5 7.5z" fill="#d88a55"/></g></g></g><g><g><g><path d="m416 480.574h-320c-2.761 0-5-2.239-5-5v-272.574c0-2.761 2.239-5 5-5h320c2.761 0 5 2.239 5 5v272.574c0 2.761-2.239 5-5 5z" fill="#838383"/></g><g><path d="m106 460.574v-242.574c0-2.761 2.239-5 5-5h290c2.761 0 5 2.239 5 5v242.574c0 2.761-2.239 5-5 5h-290c-2.761 0-5-2.239-5-5z" fill="#5a5a5a"/></g><g><path d="m106 218v242.574c0 2.761 2.239 5 5 5h25v-252.574h-25c-2.761 0-5 2.238-5 5z" fill="#444"/></g></g><g fill="#e2e2e2"><path d="m261.971 372.653h-11.942c-4.142 0-7.5 3.358-7.5 7.5s3.358 7.5 7.5 7.5h11.942c4.142 0 7.5-3.358 7.5-7.5s-3.358-7.5-7.5-7.5z"/><path d="m261.971 394.793h-11.942c-4.142 0-7.5 3.358-7.5 7.5s3.358 7.5 7.5 7.5h11.942c4.142 0 7.5-3.358 7.5-7.5s-3.358-7.5-7.5-7.5z"/><path d="m261.971 416.933h-11.942c-4.142 0-7.5 3.358-7.5 7.5s3.358 7.5 7.5 7.5h11.942c4.142 0 7.5-3.358 7.5-7.5s-3.358-7.5-7.5-7.5z"/><path d="m367.959 336.474c-2.515-3.291-7.222-3.92-10.513-1.405-16.492 12.603-38.669 20.855-64.188 23.923-4.491-4.574-10.701-7.267-17.257-7.267h-10.167v-5.769c39.614-.505 75.728-12.284 100.095-32.865 3.165-2.672 3.563-7.404.891-10.569-2.673-3.164-7.405-3.564-10.569-.89-21.711 18.338-54.312 28.845-90.416 29.325v-15.367c38.651-2.087 72.814-15.91 94.851-38.661 2.882-2.976 2.806-7.724-.169-10.605-2.977-2.882-7.724-2.806-10.605.169-18.968 19.583-49.87 31.985-84.077 34.068v-14.826c28.72-2.03 54.234-12.663 70.623-29.583 2.882-2.976 2.806-7.724-.169-10.605-2.977-2.882-7.724-2.806-10.605.169-13.48 13.917-34.704 22.801-58.948 24.885.483-1.056 1.143-2.033 1.98-2.87l16.367-16.367c3.841-3.841 3.841-10.068 0-13.908-3.841-3.841-10.068-3.841-13.908 0l-8.22 8.22c-3.841 3.841-10.068 3.841-13.908 0l-8.22-8.22c-3.841-3.841-10.068-3.841-13.908 0-3.841 3.841-3.841 10.068 0 13.908l16.367 16.367c.837.837 1.498 1.814 1.98 2.87-24.244-2.084-45.468-10.968-58.948-24.885-2.881-2.975-7.629-3.051-10.605-.169-2.975 2.882-3.051 7.63-.169 10.605 16.389 16.92 41.903 27.554 70.623 29.583v14.826c-34.207-2.083-65.109-14.485-84.077-34.068-2.882-2.974-7.63-3.051-10.605-.169s-3.051 7.63-.169 10.605c22.037 22.751 56.2 36.574 94.851 38.661v15.369c-36.1-.479-68.705-10.988-90.416-29.325-3.164-2.672-7.896-2.274-10.569.89-2.672 3.165-2.274 7.896.891 10.569 24.368 20.582 60.478 32.36 100.095 32.865v5.769h-10.167c-6.556 0-12.765 2.692-17.257 7.267-25.518-3.068-47.696-11.32-64.188-23.923-3.292-2.515-7.998-1.886-10.513 1.405-2.515 3.292-1.886 7.998 1.405 10.513 17.035 13.018 39.165 21.886 64.384 25.899l-6.919 11.984c-.113.196-.241.38-.357.573-15.918-2.417-29.82-7.257-41.319-14.394-3.52-2.183-8.144-1.101-10.328 2.417-2.184 3.52-1.102 8.144 2.417 10.328 10.503 6.519 22.63 11.348 36.152 14.428-5.409 3.094-11.608 4.811-18.026 4.811h-2.797c-4.142 0-7.5 3.358-7.5 7.5s3.358 7.5 7.5 7.5h2.797c18.279 0 35.311-9.833 44.451-25.664l12.161-21.062c1.632-2.827 4.673-4.583 7.938-4.583h40.003c3.264 0 6.306 1.756 7.938 4.583l18.388 31.849c5.298 9.176 15.172 14.877 25.768 14.877h15.253c4.142 0 7.5-3.358 7.5-7.5s-3.358-7.5-7.5-7.5h-15.253c-3.726 0-7.267-1.427-9.951-3.876 15.297-2.993 28.906-8.147 40.533-15.362 3.519-2.184 4.602-6.808 2.417-10.328-2.184-3.519-6.807-4.603-10.328-2.417-11.505 7.14-25.415 11.981-41.343 14.397l-7.253-12.562c25.219-4.014 47.349-12.882 64.384-25.899 3.287-2.516 3.916-7.222 1.401-10.514z"/></g></g><g><g><circle cx="340.5" cy="442.5" fill="#868686" r="7.5"/></g><g><circle cx="362.5" cy="442.5" fill="#838383" r="7.5"/></g><g><circle cx="384.5" cy="442.5" fill="#fff" r="7.5"/></g></g></symbol><symbol id="ct-scan" viewBox="0 0 512 512"><title>ct-scan</title><path d="m256 22c-135.31 0-245 109.69-245 245 0 40.7 9.938 79.073 27.5 112.847l1-.235v-29.612c0-7.72 6.28-14 14-14h405c7.72 0 14 6.28 14 14v29.612l1 .235c17.562-33.774 27.5-72.147 27.5-112.847 0-135.31-109.69-245-245-245z" fill="#22b27f"/><g><g fill="#fff"><path d="m120.373 175.922c-38.254 1.118-68.927 32.458-68.927 70.982v89.263c.672-.1 1.354-.168 2.054-.168h66.873z"/><path d="m391.627 175.922v160.078h66.873c.699 0 1.381.068 2.054.168v-89.263c0-38.525-30.673-69.864-68.927-70.983z"/></g><path d="m120.373 175.922c-38.254 1.118-68.927 32.458-68.927 70.982v89.263c.672-.099 1.355-.167 2.054-.167h29.393v-89.095c0-27.094 15.172-50.638 37.48-62.618z" fill="#f8f6f6"/><path d="m392.626 336v-199.374c0-75.456-61.169-136.626-136.626-136.626-75.457 0-136.626 61.17-136.626 136.626v199.374z" fill="#f8f6f6"/><path d="m158.19 136.369c0-31.264 14.669-59.101 37.499-77.007 19.912-28.979 50.708-49.897 86.497-56.845-8.476-1.645-17.228-2.517-26.186-2.517-75.457 0-136.626 61.17-136.626 136.626v199.374h52.374v-149.938c-8.611-14.563-13.558-31.549-13.558-49.693z" fill="#e2e2e2"/><g><path d="m213.438 174.56h85.125c15.764 0 28.671 12.457 29.402 28.042 16.043-17.423 25.845-40.682 25.845-66.233 0-54.019-43.791-97.81-97.81-97.81s-97.81 43.791-97.81 97.81c0 25.551 9.802 48.81 25.845 66.233.731-15.586 13.639-28.042 29.403-28.042z" fill="#0172fb"/></g><g><path d="m213.438 174.56h85.125c7.85 0 14.986 3.095 20.269 8.12 9.566-12.956 15.228-28.97 15.228-46.311 0-43.111-34.948-78.06-78.06-78.06s-78.06 34.948-78.06 78.06c0 17.341 5.662 33.355 15.228 46.311 5.284-5.026 12.42-8.12 20.27-8.12z" fill="#8ac9fe"/></g><g><path d="m213.438 174.56h12.099c-6.349-11.289-9.977-24.314-9.977-38.19 0-36.624 25.228-67.344 59.25-75.763-6.026-1.491-12.323-2.296-18.81-2.296-43.111 0-78.06 34.948-78.06 78.06 0 17.341 5.662 33.354 15.228 46.311 5.284-5.028 12.42-8.122 20.27-8.122z" fill="#60b7ff"/></g><path d="m170 248.56v22c0 5.523 4.477 10 10 10h152c5.523 0 10-4.477 10-10v-22z" fill="#868686"/><path d="m329 213.56v-9.562c0-16.81-13.627-30.438-30.438-30.438h-85.125c-16.81 0-30.438 13.627-30.438 30.438v9.562z" fill="#9c9c9c"/><path d="m253.438 173.56h-40c-16.81 0-30.438 13.627-30.438 30.438v9.562h40v-9.562c0-16.811 13.627-30.438 30.438-30.438z" fill="#868686"/><path d="m369.5 249.56h-227c-2.761 0-5-2.239-5-5v-27c0-2.761 2.239-5 5-5h227c2.761 0 5 2.239 5 5v27c0 2.761-2.239 5-5 5z" fill="#acacac"/><path d="m188 244.56v-27c0-2.761 2.239-5 5-5h-50.5c-2.761 0-5 2.239-5 5v27c0 2.761 2.239 5 5 5h50.5c-2.761 0-5-2.239-5-5z" fill="#9c9c9c"/><g><g><circle cx="236" cy="21.06" fill="#8ac9fe" r="7.5"/></g><g><circle cx="256" cy="21.06" fill="#22b27f" r="7.5"/></g><g><circle cx="276" cy="21.06" fill="#0172fb" r="7.5"/></g></g></g><g><path d="m458.5 335h-405c-8.284 0-15 6.716-15 15v29.858c40.822 78.511 122.893 132.142 217.5 132.142s176.678-53.631 217.5-132.142v-29.858c0-8.284-6.716-15-15-15z" fill="#eaf6ff"/></g><path d="m87 350c0-8.284 6.716-15 15-15h-48.5c-8.284 0-15 6.716-15 15v29.858c12.546 24.13 28.994 45.904 48.5 64.499z" fill="#d8ecfe"/><g><g><path d="m256 512c48.396 0 93.511-14.038 131.506-38.256l-9.268-35.478c-4.628-15.699-19.041-26.477-35.408-26.477h-173.661c-16.367 0-30.78 10.777-35.408 26.477l-9.268 35.478c37.996 24.218 83.111 38.256 131.507 38.256z" fill="#8ac9fe"/><path d="m176.188 438.265c4.628-15.699 19.041-26.477 35.408-26.477h-42.426c-16.367 0-30.78 10.777-35.408 26.477l-9.268 35.478c12.014 7.658 24.743 14.295 38.06 19.795z" fill="#60b7ff"/><g><path d="m284.901 265.354v15.075h3.238c12.589 0 22.83 10.241 22.83 22.83v12.854h9.515c2.103 0 4.107.432 5.929 1.209v-42.275c0-21.734-17.619-39.353-39.353-39.353h-16.227c8.582 7.038 14.068 17.719 14.068 29.66z" fill="#fb8801"/><path d="m191.516 316.112h9.515v-12.854c0-12.589 10.241-22.83 22.83-22.83h62.042v-15.075c0-21.734-17.619-39.353-39.353-39.353h-21.61c-21.734 0-39.353 17.619-39.353 39.353v51.968c1.822-.777 3.826-1.209 5.929-1.209z" fill="#fe9901"/><path d="m191.516 316.112h9.515v-12.854c0-8.115 4.259-15.248 10.655-19.298v-18.607c0-20.98 16.419-38.121 37.108-39.285-.743-.042-1.491-.068-2.245-.068h-21.609c-21.734 0-39.353 17.619-39.353 39.353v51.968c1.822-.777 3.826-1.209 5.929-1.209z" fill="#fb8801"/><g><path d="m201.03 357.499v-42.386h-9.515c-8.927 0-16.163 7.237-16.163 16.163v11.855c0 8.927 7.237 16.163 16.163 16.163h9.56c-.024-.596-.045-1.193-.045-1.795z" fill="#f6a96c"/><path d="m320.485 315.113h-9.515v42.386c0 .602-.021 1.199-.046 1.795h9.56c8.927 0 16.163-7.236 16.163-16.163v-11.855c.001-8.927-7.236-16.163-16.162-16.163z" fill="#ffbd86"/></g><g><path d="m277.867 408.097v-8.525c-3.271.793-6.682 1.223-10.194 1.223h-23.346c-3.511 0-6.923-.431-10.194-1.223v8.525c0 2.039-1.653 3.691-3.691 3.691h-9.932l33.061 50.48c1.192 1.773 3.803 1.767 4.987-.012l32.693-50.468h-9.693c-2.038.001-3.691-1.652-3.691-3.691z" fill="#ffbd86"/></g><g><g><path d="m246.809 418.194h4.381c2.039 0 3.691-1.653 3.691-3.691v-13.707h-10.555c-3.511 0-6.923-.431-10.194-1.223v8.525c0 2.039-1.653 3.691-3.691 3.691h-9.932l33.061 50.48c1.192 1.773 3.803 1.767 4.987-.012l5.748-8.873-20.005-30.546c-1.307-1.996.124-4.644 2.509-4.644z" fill="#f6a96c"/></g></g><g><path d="m267.673 401.796h-23.346c-24.464 0-44.297-19.832-44.297-44.297v-54.24c0-13.161 10.669-23.83 23.83-23.83h64.279c13.161 0 23.83 10.669 23.83 23.83v54.24c.001 24.465-19.832 44.297-44.296 44.297z" fill="#fed2a4"/></g><path d="m221 357.499v-54.24c0-13.161 10.669-23.83 23.83-23.83h-20.97c-13.161 0-23.83 10.669-23.83 23.83v54.24c0 24.464 19.833 44.297 44.297 44.297h20.97c-24.465 0-44.297-19.832-44.297-44.297z" fill="#ffbd86"/></g><g><g><g><path d="m226.469 338.249c-4.143 0-7.5-3.357-7.5-7.5v-12.464c0-4.143 3.357-7.5 7.5-7.5s7.5 3.357 7.5 7.5v12.464c0 4.143-3.358 7.5-7.5 7.5z" fill="#ea9b58"/></g><g><path d="m285.531 338.249c-4.143 0-7.5-3.357-7.5-7.5v-12.464c0-4.143 3.357-7.5 7.5-7.5s7.5 3.357 7.5 7.5v12.464c0 4.143-3.357 7.5-7.5 7.5z" fill="#ea9b58"/></g></g><g><path d="m257.803 380.314c-8.474 0-16.443-3.304-22.441-9.301-2.929-2.93-2.929-7.678 0-10.607 2.93-2.928 7.678-2.928 10.607 0 3.164 3.165 7.367 4.908 11.834 4.908s8.67-1.743 11.834-4.908c2.93-2.928 7.678-2.928 10.607 0 2.929 2.93 2.929 7.678 0 10.607-5.998 5.998-13.968 9.301-22.441 9.301z" fill="#ea9b58"/></g><g><path d="m261.813 351.445h-5.441c-5.635 0-10.22-4.585-10.22-10.22v-12.696c0-4.143 3.357-7.5 7.5-7.5s7.5 3.357 7.5 7.5v7.916h.661c4.143 0 7.5 3.357 7.5 7.5s-3.357 7.5-7.5 7.5z" fill="#ea9b58"/></g></g></g></g></symbol></svg>